{
    "asset" : {
        "generator" : "Khronos glTF Blender I/O v1.6.16",
        "version" : "2.0"
    },
    "scene" : 0,
    "scenes" : [
        {
            "name" : "Scene",
            "nodes" : [
                0,
                1
            ]
        }
    ],
    "nodes" : [
        {
            "mesh" : 0,
            "name" : "Circle",
            "translation" : [
                0,
                -0.02005533128976822,
                0
            ]
        },
        {
            "mesh" : 1,
            "name" : "Circle.001",
            "translation" : [
                0,
                -0.010215677320957184,
                0
            ]
        }
    ],
    "materials" : [
        {
            "doubleSided" : true,
            "name" : "Material.001",
            "pbrMetallicRoughness" : {
                "baseColorTexture" : {
                    "index" : 0
                },
                "metallicFactor" : 0,
                "roughnessFactor" : 0.5
            }
        },
        {
            "doubleSided" : true,
            "name" : "Material.002",
            "pbrMetallicRoughness" : {
                "baseColorFactor" : [
                    0.8000000715255737,
                    0.22454656660556793,
                    0.05585797503590584,
                    1
                ],
                "metallicFactor" : 0,
                "roughnessFactor" : 0.4000000059604645
            }
        }
    ],
    "meshes" : [
        {
            "name" : "Circle",
            "primitives" : [
                {
                    "attributes" : {
                        "POSITION" : 0,
                        "NORMAL" : 1,
                        "TEXCOORD_0" : 2,
                        "COLOR_0" : 3
                    },
                    "indices" : 4,
                    "material" : 0
                }
            ]
        },
        {
            "name" : "Circle.001",
            "primitives" : [
                {
                    "attributes" : {
                        "POSITION" : 5,
                        "NORMAL" : 6,
                        "TEXCOORD_0" : 7
                    },
                    "indices" : 8,
                    "material" : 1
                }
            ]
        }
    ],
    "textures" : [
        {
            "sampler" : 0,
            "source" : 0
        }
    ],
    "images" : [
        {
            "mimeType" : "image/png",
            "name" : "\u0e42\u0e2d\u0e48\u0e07 Base Color",
            "uri" : "%E0%B9%82%E0%B8%AD%E0%B9%88%E0%B8%87%20Base%20Color.png"
        }
    ],
    "accessors" : [
        {
            "bufferView" : 0,
            "componentType" : 5126,
            "count" : 937,
            "max" : [
                2.434398651123047,
                4.379263877868652,
                2.434398651123047
            ],
            "min" : [
                -2.434398651123047,
                0,
                -2.434398651123047
            ],
            "type" : "VEC3"
        },
        {
            "bufferView" : 1,
            "componentType" : 5126,
            "count" : 937,
            "type" : "VEC3"
        },
        {
            "bufferView" : 2,
            "componentType" : 5126,
            "count" : 937,
            "type" : "VEC2"
        },
        {
            "bufferView" : 3,
            "componentType" : 5123,
            "count" : 937,
            "normalized" : true,
            "type" : "VEC4"
        },
        {
            "bufferView" : 4,
            "componentType" : 5123,
            "count" : 1479,
            "type" : "SCALAR"
        },
        {
            "bufferView" : 5,
            "componentType" : 5126,
            "count" : 192,
            "max" : [
                1,
                0.17271271347999573,
                1
            ],
            "min" : [
                -1,
                0,
                -1
            ],
            "type" : "VEC3"
        },
        {
            "bufferView" : 6,
            "componentType" : 5126,
            "count" : 192,
            "type" : "VEC3"
        },
        {
            "bufferView" : 7,
            "componentType" : 5126,
            "count" : 192,
            "type" : "VEC2"
        },
        {
            "bufferView" : 8,
            "componentType" : 5123,
            "count" : 372,
            "type" : "SCALAR"
        }
    ],
    "bufferViews" : [
        {
            "buffer" : 0,
            "byteLength" : 11244,
            "byteOffset" : 0
        },
        {
            "buffer" : 0,
            "byteLength" : 11244,
            "byteOffset" : 11244
        },
        {
            "buffer" : 0,
            "byteLength" : 7496,
            "byteOffset" : 22488
        },
        {
            "buffer" : 0,
            "byteLength" : 7496,
            "byteOffset" : 29984
        },
        {
            "buffer" : 0,
            "byteLength" : 2958,
            "byteOffset" : 37480
        },
        {
            "buffer" : 0,
            "byteLength" : 2304,
            "byteOffset" : 40440
        },
        {
            "buffer" : 0,
            "byteLength" : 2304,
            "byteOffset" : 42744
        },
        {
            "buffer" : 0,
            "byteLength" : 1536,
            "byteOffset" : 45048
        },
        {
            "buffer" : 0,
            "byteLength" : 744,
            "byteOffset" : 46584
        }
    ],
    "samplers" : [
        {
            "magFilter" : 9729,
            "minFilter" : 9987
        }
    ],
    "buffers" : [
        {
            "byteLength" : 47328,
            "uri" : "test01.bin"
        }
    ]
}
